{"title":"The.Wild.Thornberrys.Movie.2002.1080p.WEB-DL.DD5.1.H264-FGT","uid":15947512,"size":2983946472,"categoryP":"video","categoryS":"movies","magnet":"?xt=urn:btih:40e9fb6b54b9c0cb836ca608159b5af4eb76171e&amp;dn=The.Wild.Thornberrys.Movie.2002.1080p.WEB-DL.DD5.1.H264-FGT&amp;tr=udp%3A%2F%2Ftracker.leechers-paradise.org%3A6969&amp;tr=udp%3A%2F%2Fzer0day.ch%3A1337&amp;tr=udp%3A%2F%2Fopen.demonii.com%3A1337&amp;tr=udp%3A%2F%2Ftracker.coppersurfer.tk%3A6969&amp;tr=udp%3A%2F%2Fexodus.desync.com%3A6969","seeders":3,"leechers":5,"uploader":"RioterM","files":3,"time":1475528377,"description":"Note: &quot;Not Mine Just uploaded the torrent file and helped Seeding it. All credit goes to the original encoders.\r\n\r\nThe.Wild.Thornberrys.Movie.2002.1080p.WEB-DL.DD5.1.H264-FGT\r\n\r\n\r\nInfo:\r\nInfo:\r\nVideo\r\nID : 1\r\nFormat : AVC\r\nFormat/Info : Advanced Video Codec\r\nFormat profile :   \r\nFormat settings, CABAC : Yes\r\nFormat settings, ReFrames : 5 frames\r\nCodec ID : V_MPEG4/ISO/AVC\r\nDuration : 1h 25mn\r\nBit rate : 4 185 Kbps\r\nWidth : 1 916 pixels\r\nHeight : 812 pixels\r\nDisplay aspect ratio : 2.35:1\r\nFrame rate mode : Constant\r\nFrame rate : 23.976 fps\r\nColor space : YUV\r\nChroma subsampling : 4:2:0\r\nBit depth : 8 bits\r\nScan type : Progressive\r\nBits/(Pixel*Frame) : 0.112\r\nStream size : 2.49 GiB (90%)\r\nTitle : The.Wild.Thornberrys.Movie.2002.1080p.WEB-DL.DD5.1.H264-FGT\r\nLanguage : English\r\nDefault : Yes\r\nForced : No\r\nColor range : Limited\r\nColor primaries : BT.709\r\nTransfer characteristics : BT.709\r\nMatrix coefficients : BT.709\r\n\r\nAudio\r\nID : 2\r\nFormat : AC-3\r\nFormat/Info : Audio Coding 3\r\nMode extension : CM (complete main)\r\nFormat settings, Endianness : Big\r\nCodec ID : A_AC3\r\nDuration : 1h 25mn\r\nBit rate mode : Constant\r\nBit rate : 384 Kbps\r\nChannel(s) : 6 channels\r\nChannel positions : Front: L C R, Side: L R, LFE\r\nSampling rate : 48.0 KHz\r\nBit depth : 16 bits\r\nCompression mode : Lossy\r\nStream size : 234 MiB (8%)\r\nTitle : The.Wild.Thornberrys.Movie.2002.1080p.WEB-DL.DD5.1.H264-FGT\r\nLanguage : English\r\nDefault : Yes\r\nForced : No","torrent":{"xt":"urn:btih:40e9fb6b54b9c0cb836ca608159b5af4eb76171e","amp;dn":"The.Wild.Thornberrys.Movie.2002.1080p.WEB-DL.DD5.1.H264-FGT","amp;tr":["udp%3A%2F%2Ftracker.leechers-paradise.org%3A6969","udp%3A%2F%2Fzer0day.ch%3A1337","udp%3A%2F%2Fopen.demonii.com%3A1337","udp%3A%2F%2Ftracker.coppersurfer.tk%3A6969","udp%3A%2F%2Fexodus.desync.com%3A6969"],"infoHash":"40e9fb6b54b9c0cb836ca608159b5af4eb76171e","infoHashBuffer":{"type":"Buffer","data":[64,233,251,107,84,185,192,203,131,108,166,8,21,155,90,244,235,118,23,30]},"announce":[],"urlList":[]}}